<mxfile host="app.diagrams.net" modified="2023-09-23T01:31:12.329Z" agent="Mozilla/5.0 (Windows NT 10.0; Win64; x64) AppleWebKit/537.36 (KHTML, like Gecko) Chrome/116.0.0.0 Safari/537.36" version="21.8.1" etag="bXDM1u3qhy596zizS-1E" type="github">
  <diagram name="第 1 页" id="elk43JXTNHSnNoxRmuOH">
    <mxGraphModel>
      <root>
        <mxCell id="0" />
        <mxCell id="1" parent="0" />
      </root>
    </mxGraphModel>
  </diagram>
</mxfile>
